<?xml version="1.0" encoding="UTF-8"?>
<!-- Do not edit this file with editors other than diagrams.net -->
<!DOCTYPE svg PUBLIC "-//W3C//DTD SVG 1.1//EN" "http://www.w3.org/Graphics/SVG/1.1/DTD/svg11.dtd">
<svg xmlns="http://www.w3.org/2000/svg" version="1.1" width="801px"
     height="342px" viewBox="-0.5 -0.5 801 342">
    <defs>
        <clipPath id="mx-clip-233-180-30-30-0">
            <rect x="233" y="180" width="30" height="30"/>
        </clipPath>
        <clipPath id="mx-clip-269-180-244-30-0">
            <rect x="269" y="180" width="244" height="30"/>
        </clipPath>
        <clipPath id="mx-clip-269-210-244-30-0">
            <rect x="269" y="210" width="244" height="30"/>
        </clipPath>
        <clipPath id="mx-clip-269-240-244-30-0">
            <rect x="269" y="240" width="244" height="30"/>
        </clipPath>
        <clipPath id="mx-clip-269-270-244-30-0">
            <rect x="269" y="270" width="244" height="30"/>
        </clipPath>
        <clipPath id="mx-clip-593-90-30-30-0">
            <rect x="593" y="90" width="30" height="30"/>
        </clipPath>
        <clipPath id="mx-clip-629-90-144-30-0">
            <rect x="629" y="90" width="144" height="30"/>
        </clipPath>
        <clipPath id="mx-clip-629-120-144-30-0">
            <rect x="629" y="120" width="144" height="30"/>
        </clipPath>
        <clipPath id="mx-clip-593-150-30-30-0">
            <rect x="593" y="150" width="30" height="30"/>
        </clipPath>
        <clipPath id="mx-clip-629-150-144-30-0">
            <rect x="629" y="150" width="144" height="30"/>
        </clipPath>
        <clipPath id="mx-clip-593-180-30-30-0">
            <rect x="593" y="180" width="30" height="30"/>
        </clipPath>
        <clipPath id="mx-clip-629-180-144-30-0">
            <rect x="629" y="180" width="144" height="30"/>
        </clipPath>
        <clipPath id="mx-clip-629-210-144-30-0">
            <rect x="629" y="210" width="144" height="30"/>
        </clipPath>
        <clipPath id="mx-clip-233-60-30-30-0">
            <rect x="233" y="60" width="30" height="30"/>
        </clipPath>
        <clipPath id="mx-clip-269-60-244-30-0">
            <rect x="269" y="60" width="244" height="30"/>
        </clipPath>
        <clipPath id="mx-clip-269-90-244-30-0">
            <rect x="269" y="90" width="244" height="30"/>
        </clipPath>
        <clipPath id="mx-clip-20-90-30-30-0">
            <rect x="20" y="90" width="30" height="30"/>
        </clipPath>
        <clipPath id="mx-clip-56-90-144-30-0">
            <rect x="56" y="90" width="144" height="30"/>
        </clipPath>
        <clipPath id="mx-clip-56-120-144-30-0">
            <rect x="56" y="120" width="144" height="30"/>
        </clipPath>
        <clipPath id="mx-clip-56-150-144-30-0">
            <rect x="56" y="150" width="144" height="30"/>
        </clipPath>
        <clipPath id="mx-clip-20-180-30-30-0">
            <rect x="20" y="180" width="30" height="30"/>
        </clipPath>
        <clipPath id="mx-clip-56-180-144-30-0">
            <rect x="56" y="180" width="144" height="30"/>
        </clipPath>
    </defs>
    <g>
        <rect x="0" y="0" width="800" height="340" fill="rgb(255, 255, 255)" stroke="rgb(0, 0, 0)"
              pointer-events="all"/>
        <path d="M 233 180 L 233 150 L 513 150 L 513 180" fill="rgb(255, 255, 255)" stroke="rgb(0, 0, 0)"
              stroke-miterlimit="10" pointer-events="all"/>
        <path d="M 233 180 L 233 300 L 513 300 L 513 180" fill="none" stroke="rgb(0, 0, 0)" stroke-miterlimit="10"
              pointer-events="none"/>
        <path d="M 233 180 L 513 180" fill="none" stroke="rgb(0, 0, 0)" stroke-miterlimit="10" pointer-events="none"/>
        <path d="M 263 180 L 263 210 L 263 240 L 263 270 L 263 300" fill="none" stroke="rgb(0, 0, 0)"
              stroke-miterlimit="10" pointer-events="none"/>
        <g fill="rgb(0, 0, 0)" font-family="Helvetica" font-weight="bold" pointer-events="none" text-anchor="middle"
           font-size="12px">
            <text x="372.5" y="169.5">user</text>
        </g>
        <path d="M 233 180 M 513 180 M 513 210 L 233 210" fill="none" stroke="rgb(0, 0, 0)" stroke-linecap="square"
              stroke-miterlimit="10" pointer-events="none"/>
        <path d="M 233 180 M 263 180 M 263 210 M 233 210" fill="none" stroke="rgb(0, 0, 0)" stroke-linecap="square"
              stroke-miterlimit="10" pointer-events="none"/>
        <g fill="rgb(0, 0, 0)" font-family="Helvetica" font-weight="bold" pointer-events="none"
           clip-path="url(#mx-clip-233-180-30-30-0)" text-anchor="middle" font-size="12px">
            <text x="247.5" y="199.5">PK</text>
        </g>
        <path d="M 263 180 M 513 180 M 513 210 M 263 210" fill="none" stroke="rgb(0, 0, 0)" stroke-linecap="square"
              stroke-miterlimit="10" pointer-events="none"/>
        <g fill="rgb(0, 0, 0)" font-family="Helvetica" font-weight="bold" text-decoration="underline"
           pointer-events="none" clip-path="url(#mx-clip-269-180-244-30-0)" font-size="12px">
            <text x="270.5" y="199.5">id: serial, NOT NULL</text>
        </g>
        <path d="M 233 210 M 263 210 M 263 240 M 233 240" fill="none" stroke="rgb(0, 0, 0)" stroke-linecap="square"
              stroke-miterlimit="10" pointer-events="none"/>
        <path d="M 263 210 M 513 210 M 513 240 M 263 240" fill="none" stroke="rgb(0, 0, 0)" stroke-linecap="square"
              stroke-miterlimit="10" pointer-events="none"/>
        <g fill="rgb(0, 0, 0)" font-family="Helvetica" pointer-events="none" clip-path="url(#mx-clip-269-210-244-30-0)"
           font-size="12px">
            <text x="270.5" y="229.5">username: varchar(64), unique, NOT NULL</text>
        </g>
        <path d="M 233 240 M 263 240 M 263 270 M 233 270" fill="none" stroke="rgb(0, 0, 0)" stroke-linecap="square"
              stroke-miterlimit="10" pointer-events="none"/>
        <path d="M 263 240 M 513 240 M 513 270 M 263 270" fill="none" stroke="rgb(0, 0, 0)" stroke-linecap="square"
              stroke-miterlimit="10" pointer-events="none"/>
        <g fill="rgb(0, 0, 0)" font-family="Helvetica" pointer-events="none" clip-path="url(#mx-clip-269-240-244-30-0)"
           font-size="12px">
            <text x="270.5" y="259.5">password: varchar(64), NOT NULL</text>
        </g>
        <path d="M 233 270 M 263 270 M 263 300 M 233 300" fill="none" stroke="rgb(0, 0, 0)" stroke-linecap="square"
              stroke-miterlimit="10" pointer-events="none"/>
        <path d="M 263 270 M 513 270 M 513 300 M 263 300" fill="none" stroke="rgb(0, 0, 0)" stroke-linecap="square"
              stroke-miterlimit="10" pointer-events="none"/>
        <g fill="rgb(0, 0, 0)" font-family="Helvetica" pointer-events="none" clip-path="url(#mx-clip-269-270-244-30-0)"
           font-size="12px">
            <text x="270.5" y="289.5">role: role_type, NOT NULL</text>
        </g>
        <path d="M 593 90 L 593 60 L 773 60 L 773 90" fill="rgb(255, 255, 255)" stroke="rgb(0, 0, 0)"
              stroke-miterlimit="10" pointer-events="none"/>
        <path d="M 593 90 L 593 240 L 773 240 L 773 90" fill="none" stroke="rgb(0, 0, 0)" stroke-miterlimit="10"
              pointer-events="none"/>
        <path d="M 593 90 L 773 90" fill="none" stroke="rgb(0, 0, 0)" stroke-miterlimit="10" pointer-events="none"/>
        <path d="M 623 90 L 623 120 L 623 150 L 623 180 L 623 210 L 623 240" fill="none" stroke="rgb(0, 0, 0)"
              stroke-miterlimit="10" pointer-events="none"/>
        <g fill="rgb(0, 0, 0)" font-family="Helvetica" font-weight="bold" pointer-events="none" text-anchor="middle"
           font-size="12px">
            <text x="682.5" y="79.5">utility_meter</text>
        </g>
        <path d="M 593 90 M 773 90 M 773 120 L 593 120" fill="none" stroke="rgb(0, 0, 0)" stroke-linecap="square"
              stroke-miterlimit="10" pointer-events="none"/>
        <path d="M 593 90 M 623 90 M 623 120 M 593 120" fill="none" stroke="rgb(0, 0, 0)" stroke-linecap="square"
              stroke-miterlimit="10" pointer-events="none"/>
        <g fill="rgb(0, 0, 0)" font-family="Helvetica" font-weight="bold" pointer-events="none"
           clip-path="url(#mx-clip-593-90-30-30-0)" text-anchor="middle" font-size="12px">
            <text x="607.5" y="109.5">PK</text>
        </g>
        <path d="M 623 90 M 773 90 M 773 120 M 623 120" fill="none" stroke="rgb(0, 0, 0)" stroke-linecap="square"
              stroke-miterlimit="10" pointer-events="none"/>
        <g fill="rgb(0, 0, 0)" font-family="Helvetica" font-weight="bold" text-decoration="underline"
           pointer-events="none" clip-path="url(#mx-clip-629-90-144-30-0)" font-size="12px">
            <text x="630.5" y="109.5">id:  serial, NOT NULL</text>
        </g>
        <path d="M 593 120 M 623 120 M 623 150 M 593 150" fill="none" stroke="rgb(0, 0, 0)" stroke-linecap="square"
              stroke-miterlimit="10" pointer-events="none"/>
        <path d="M 623 120 M 773 120 M 773 150 M 623 150" fill="none" stroke="rgb(0, 0, 0)" stroke-linecap="square"
              stroke-miterlimit="10" pointer-events="none"/>
        <g fill="rgb(0, 0, 0)" font-family="Helvetica" pointer-events="none" clip-path="url(#mx-clip-629-120-144-30-0)"
           font-size="12px">
            <text x="630.5" y="139.5">counter:  DOUBLE PRECISION</text>
        </g>
        <path d="M 593 150 M 623 150 M 623 180 M 593 180" fill="none" stroke="rgb(0, 0, 0)" stroke-linecap="square"
              stroke-miterlimit="10" pointer-events="none"/>
        <g fill="rgb(0, 0, 0)" font-family="Helvetica" pointer-events="none" clip-path="url(#mx-clip-593-150-30-30-0)"
           text-anchor="middle" font-size="12px">
            <text x="607.5" y="169.5">FK</text>
        </g>
        <path d="M 623 150 M 773 150 M 773 180 M 623 180" fill="none" stroke="rgb(0, 0, 0)" stroke-linecap="square"
              stroke-miterlimit="10" pointer-events="none"/>
        <g fill="rgb(0, 0, 0)" font-family="Helvetica" pointer-events="none" clip-path="url(#mx-clip-629-150-144-30-0)"
           font-size="12px">
            <text x="630.5" y="169.5">meter_type_id</text>
        </g>
        <path d="M 593 180 M 623 180 M 623 210 M 593 210" fill="none" stroke="rgb(0, 0, 0)" stroke-linecap="square"
              stroke-miterlimit="10" pointer-events="none"/>
        <g fill="rgb(0, 0, 0)" font-family="Helvetica" pointer-events="none" clip-path="url(#mx-clip-593-180-30-30-0)"
           text-anchor="middle" font-size="12px">
            <text x="607.5" y="199.5">FK</text>
        </g>
        <path d="M 623 180 M 773 180 M 773 210 M 623 210" fill="none" stroke="rgb(0, 0, 0)" stroke-linecap="square"
              stroke-miterlimit="10" pointer-events="none"/>
        <g fill="rgb(0, 0, 0)" font-family="Helvetica" pointer-events="none" clip-path="url(#mx-clip-629-180-144-30-0)"
           font-size="12px">
            <text x="630.5" y="199.5">user_id</text>
        </g>
        <path d="M 593 210 M 623 210 M 623 240 M 593 240" fill="none" stroke="rgb(0, 0, 0)" stroke-linecap="square"
              stroke-miterlimit="10" pointer-events="none"/>
        <path d="M 623 210 M 773 210 M 773 240 M 623 240" fill="none" stroke="rgb(0, 0, 0)" stroke-linecap="square"
              stroke-miterlimit="10" pointer-events="none"/>
        <g fill="rgb(0, 0, 0)" font-family="Helvetica" pointer-events="none" clip-path="url(#mx-clip-629-210-144-30-0)"
           font-size="12px">
            <text x="630.5" y="229.5">readingsDate: DATE</text>
        </g>
        <path d="M 233 60 L 233 30 L 513 30 L 513 60" fill="rgb(255, 255, 255)" stroke="rgb(0, 0, 0)"
              stroke-miterlimit="10" pointer-events="none"/>
        <path d="M 233 60 L 233 120 L 513 120 L 513 60" fill="none" stroke="rgb(0, 0, 0)" stroke-miterlimit="10"
              pointer-events="none"/>
        <path d="M 233 60 L 513 60" fill="none" stroke="rgb(0, 0, 0)" stroke-miterlimit="10" pointer-events="none"/>
        <path d="M 263 60 L 263 90 L 263 120" fill="none" stroke="rgb(0, 0, 0)" stroke-miterlimit="10"
              pointer-events="none"/>
        <g fill="rgb(0, 0, 0)" font-family="Helvetica" font-weight="bold" pointer-events="none" text-anchor="middle"
           font-size="12px">
            <text x="372.5" y="49.5">meter_type</text>
        </g>
        <path d="M 233 60 M 513 60 M 513 90 L 233 90" fill="none" stroke="rgb(0, 0, 0)" stroke-linecap="square"
              stroke-miterlimit="10" pointer-events="none"/>
        <path d="M 233 60 M 263 60 M 263 90 M 233 90" fill="none" stroke="rgb(0, 0, 0)" stroke-linecap="square"
              stroke-miterlimit="10" pointer-events="none"/>
        <g fill="rgb(0, 0, 0)" font-family="Helvetica" font-weight="bold" pointer-events="none"
           clip-path="url(#mx-clip-233-60-30-30-0)" text-anchor="middle" font-size="12px">
            <text x="247.5" y="79.5">PK</text>
        </g>
        <path d="M 263 60 M 513 60 M 513 90 M 263 90" fill="none" stroke="rgb(0, 0, 0)" stroke-linecap="square"
              stroke-miterlimit="10" pointer-events="none"/>
        <g fill="rgb(0, 0, 0)" font-family="Helvetica" font-weight="bold" text-decoration="underline"
           pointer-events="none" clip-path="url(#mx-clip-269-60-244-30-0)" font-size="12px">
            <text x="270.5" y="79.5">id:  serial, NOT NULL</text>
        </g>
        <path d="M 233 90 M 263 90 M 263 120 M 233 120" fill="none" stroke="rgb(0, 0, 0)" stroke-linecap="square"
              stroke-miterlimit="10" pointer-events="none"/>
        <path d="M 263 90 M 513 90 M 513 120 M 263 120" fill="none" stroke="rgb(0, 0, 0)" stroke-linecap="square"
              stroke-miterlimit="10" pointer-events="none"/>
        <g fill="rgb(0, 0, 0)" font-family="Helvetica" pointer-events="none" clip-path="url(#mx-clip-269-90-244-30-0)"
           font-size="12px">
            <text x="270.5" y="109.5">name: varchar(64), unique, NOT NULL</text>
        </g>
        <path d="M 20 90 L 20 60 L 200 60 L 200 90" fill="rgb(255, 255, 255)" stroke="rgb(0, 0, 0)"
              stroke-miterlimit="10" pointer-events="none"/>
        <path d="M 20 90 L 20 210 L 200 210 L 200 90" fill="none" stroke="rgb(0, 0, 0)" stroke-miterlimit="10"
              pointer-events="none"/>
        <path d="M 20 90 L 200 90" fill="none" stroke="rgb(0, 0, 0)" stroke-miterlimit="10" pointer-events="none"/>
        <path d="M 50 90 L 50 120 L 50 150 L 50 180 L 50 210" fill="none" stroke="rgb(0, 0, 0)" stroke-miterlimit="10"
              pointer-events="none"/>
        <g fill="rgb(0, 0, 0)" font-family="Helvetica" font-weight="bold" pointer-events="none" text-anchor="middle"
           font-size="12px">
            <text x="109.5" y="79.5">audit</text>
        </g>
        <path d="M 20 90 M 200 90 M 200 120 L 20 120" fill="none" stroke="rgb(0, 0, 0)" stroke-linecap="square"
              stroke-miterlimit="10" pointer-events="none"/>
        <path d="M 20 90 M 50 90 M 50 120 M 20 120" fill="none" stroke="rgb(0, 0, 0)" stroke-linecap="square"
              stroke-miterlimit="10" pointer-events="none"/>
        <g fill="rgb(0, 0, 0)" font-family="Helvetica" font-weight="bold" pointer-events="none"
           clip-path="url(#mx-clip-20-90-30-30-0)" text-anchor="middle" font-size="12px">
            <text x="34.5" y="109.5">PK</text>
        </g>
        <path d="M 50 90 M 200 90 M 200 120 M 50 120" fill="none" stroke="rgb(0, 0, 0)" stroke-linecap="square"
              stroke-miterlimit="10" pointer-events="none"/>
        <g fill="rgb(0, 0, 0)" font-family="Helvetica" font-weight="bold" text-decoration="underline"
           pointer-events="none" clip-path="url(#mx-clip-56-90-144-30-0)" font-size="12px">
            <text x="57.5" y="109.5">id: serial, NOT NULL</text>
        </g>
        <path d="M 20 120 M 50 120 M 50 150 M 20 150" fill="none" stroke="rgb(0, 0, 0)" stroke-linecap="square"
              stroke-miterlimit="10" pointer-events="none"/>
        <path d="M 50 120 M 200 120 M 200 150 M 50 150" fill="none" stroke="rgb(0, 0, 0)" stroke-linecap="square"
              stroke-miterlimit="10" pointer-events="none"/>
        <g fill="rgb(0, 0, 0)" font-family="Helvetica" pointer-events="none" clip-path="url(#mx-clip-56-120-144-30-0)"
           font-size="12px">
            <text x="57.5" y="139.5">info: varchar(256)</text>
        </g>
        <path d="M 20 150 M 50 150 M 50 180 M 20 180" fill="none" stroke="rgb(0, 0, 0)" stroke-linecap="square"
              stroke-miterlimit="10" pointer-events="none"/>
        <path d="M 50 150 M 200 150 M 200 180 M 50 180" fill="none" stroke="rgb(0, 0, 0)" stroke-linecap="square"
              stroke-miterlimit="10" pointer-events="none"/>
        <g fill="rgb(0, 0, 0)" font-family="Helvetica" pointer-events="none" clip-path="url(#mx-clip-56-150-144-30-0)"
           font-size="12px">
            <text x="57.5" y="169.5">dateTime: TIMESTAMP</text>
        </g>
        <path d="M 20 180 M 50 180 M 50 210 M 20 210" fill="none" stroke="rgb(0, 0, 0)" stroke-linecap="square"
              stroke-miterlimit="10" pointer-events="none"/>
        <g fill="rgb(0, 0, 0)" font-family="Helvetica" pointer-events="none" clip-path="url(#mx-clip-20-180-30-30-0)"
           text-anchor="middle" font-size="12px">
            <text x="34.5" y="199.5">FK</text>
        </g>
        <path d="M 50 180 M 200 180 M 200 210 M 50 210" fill="none" stroke="rgb(0, 0, 0)" stroke-linecap="square"
              stroke-miterlimit="10" pointer-events="none"/>
        <g fill="rgb(0, 0, 0)" font-family="Helvetica" pointer-events="none" clip-path="url(#mx-clip-56-180-144-30-0)"
           font-size="12px">
            <text x="57.5" y="199.5">user_id</text>
        </g>
        <path d="M 513 195 L 593 195" fill="none" stroke="rgb(0, 0, 0)" stroke-miterlimit="10" pointer-events="none"/>
        <path d="M 517 191 L 517 199 M 521 191 L 521 199" fill="none" stroke="rgb(0, 0, 0)" stroke-miterlimit="10"
              pointer-events="none"/>
        <path d="M 585 199 L 585 191 M 593 191 L 585 195 L 593 199" fill="none" stroke="rgb(0, 0, 0)"
              stroke-miterlimit="10" pointer-events="none"/>
        <path d="M 233 195 L 213.06 195 L 220 195 L 200 195" fill="none" stroke="rgb(0, 0, 0)" stroke-miterlimit="10"
              pointer-events="none"/>
        <path d="M 229 199 L 229 191 M 225 199 L 225 191" fill="none" stroke="rgb(0, 0, 0)" stroke-miterlimit="10"
              pointer-events="none"/>
        <path d="M 208 191 L 208 199 M 200 199 L 208 195 L 200 191" fill="none" stroke="rgb(0, 0, 0)"
              stroke-miterlimit="10" pointer-events="none"/>
        <path d="M 513 75 L 553.06 75 L 553.06 165 L 593 165" fill="none" stroke="rgb(0, 0, 0)" stroke-miterlimit="10"
              pointer-events="none"/>
        <path d="M 517 71 L 517 79 M 521 71 L 521 79" fill="none" stroke="rgb(0, 0, 0)" stroke-miterlimit="10"
              pointer-events="none"/>
        <path d="M 585 169 L 585 161 M 593 161 L 585 165 L 593 169" fill="none" stroke="rgb(0, 0, 0)"
              stroke-miterlimit="10" pointer-events="none"/>
    </g>
</svg>